{"title":"Road House[x264][Mp3(@160 Kbps)] 9 Multi_Sub.mkv","uid":5260689,"size":1123404695,"categoryP":"video","categoryS":"movies","magnet":"?xt=urn:btih:24b17a720020b146b1762ad7ce2b79f844f62057&amp;dn=Road+House%5Bx264%5D%5BMp3%28%40160+Kbps%29%5D+9+Multi_Sub.mkv&amp;tr=udp%3A%2F%2Ftracker.openbittorrent.com%3A80&amp;tr=udp%3A%2F%2Fopen.demonii.com%3A1337&amp;tr=udp%3A%2F%2Ftracker.coppersurfer.tk%3A6969&amp;tr=udp%3A%2F%2Fexodus.desync.com%3A6969","seeders":0,"leechers":1,"uploader":"Zen_Bud","files":-1,"time":1262719733,"description":"General\nComplete name                    : Road House.mkv\nFormat                           : Matroska\nFile size                        : 1.05 GiB\nDuration                         : 1h 49mn\nOverall bit rate                 : 1 368 Kbps\n\n\nVideo\nID                               : 1\nFormat                           : AVC\nDuration                         : 1h 49mn\nBit rate                         : 1 181 Kbps\nWidth                            : 720 pixels\nHeight                           : 434 pixels\nDisplay aspect ratio             : 2.35:1\nFrame rate                       : 25.000 fps\nResolution                       : 8 bits\nColorimetry                      : 4:2:0\nScan type                        : Progressive\nBits/(Pixel*Frame)               : 0.151\nStream size                      : 925 MiB (86%)\nWriting library                  : x264 core 79\n\n\nAudio\nID                               : 2\nFormat                           : MPEG Audio\nFormat version                   : Version 1\nFormat profile                   : Layer 3\nMode                             : Joint stereo / MS Stereo\nCodec ID                         : A_MPEG/L3\nCodec ID/Hint                    : MP3\nDuration                         : 1h 49mn\nBit rate mode                    : Constant\nBit rate                         : 160 Kbps\nChannel(s)                       : 2 channels\nSampling rate                    : 48.0 KHz\nStream size                      : 125 MiB (12%)\nWriting library                  : LAME3.98\nLanguage                         : English\n\nText #1\nLanguage                         : English\n\nText #2\nLanguage                         : German\n\nText #3\nLanguage                         : French\n\nText #4\nLanguage                         : Italian\n\nText #5\nLanguage                         : Spanish\n\nText #6\nLanguage                         : Dutch\n\nText #7\nLanguage                         : Swedish\n\nText #8\nLanguage                         : Norwegian\n\nText #9\nLanguage                         : Danish\n\n\n","torrent":{"xt":"urn:btih:24b17a720020b146b1762ad7ce2b79f844f62057","amp;dn":"Road+House%5Bx264%5D%5BMp3%28%40160+Kbps%29%5D+9+Multi_Sub.mkv","amp;tr":["udp%3A%2F%2Ftracker.openbittorrent.com%3A80","udp%3A%2F%2Fopen.demonii.com%3A1337","udp%3A%2F%2Ftracker.coppersurfer.tk%3A6969","udp%3A%2F%2Fexodus.desync.com%3A6969"],"infoHash":"24b17a720020b146b1762ad7ce2b79f844f62057","infoHashBuffer":{"type":"Buffer","data":[36,177,122,114,0,32,177,70,177,118,42,215,206,43,121,248,68,246,32,87]},"announce":[],"urlList":[]}}